mtllib transformer_scale.mtl
o transformer_scale.obj
v -0.043515 -0.043515 -0.043515
v 0.043515 -0.043515 -0.043515
v -0.043515 0.043515 -0.043515
v 0.043515 0.043515 -0.043515
v -0.043515 -0.043515 0.043515
v 0.043515 -0.043515 0.043515
v -0.043515 0.043515 0.043515
v 0.043515 0.043515 0.043515
vn -0.577350 -0.577350 -0.577350
vn 0.577350 -0.577350 -0.577350
vn -0.577350 0.577350 -0.577350
vn 0.577350 0.577350 -0.577350
vn -0.577350 -0.577350 0.577350
vn 0.577350 -0.577350 0.577350
vn -0.577350 0.577350 0.577350
vn 0.577350 0.577350 0.577350
vt 0.995049 0.995049
vt 0.995049 0.995049
vt 0.004950 0.995049
vt 0.004950 0.995049
vt 0.995049 0.004950
vt 0.995049 0.004950
vt 0.004950 0.004950
vt 0.004950 0.004950
g Cube
usemtl Default
f 4/1/4 2/2/2 1/3/1 3/4/3 
f 6/5/6 8/6/8 7/7/7 5/8/5 
f 6/5/6 5/8/5 1/3/1 2/2/2 
f 8/6/8 6/5/6 2/2/2 4/1/4 
f 7/7/7 8/6/8 4/1/4 3/4/3 
f 5/8/5 7/7/7 3/4/3 1/3/1 
v -0.050000 -0.050000 0.950000
v -0.050000 -0.050000 1.050000
v 0.050000 -0.050000 0.950000
v 0.050000 -0.050000 1.050000
v -0.050000 0.050000 0.950000
v -0.050000 0.050000 1.050000
v 0.050000 0.050000 0.950000
v 0.050000 0.050000 1.050000
vn -0.577350 -0.577350 -0.577350
vn -0.577350 -0.577350 0.577350
vn 0.577350 -0.577350 -0.577350
vn 0.577350 -0.577350 0.577350
vn -0.577350 0.577350 -0.577350
vn -0.577350 0.577350 0.577350
vn 0.577350 0.577350 -0.577350
vn 0.577350 0.577350 0.577350
vt 0.995049 0.995049
vt 0.995049 0.995049
vt 0.004950 0.995049
vt 0.004950 0.995049
vt 0.995049 0.004950
vt 0.995049 0.004950
vt 0.004950 0.004950
vt 0.004950 0.004950
g Cube
usemtl Default
f 12/9/12 10/10/10 9/11/9 11/12/11 
f 14/13/14 16/14/16 15/15/15 13/16/13 
f 14/13/14 13/16/13 9/11/9 10/10/10 
f 16/14/16 14/13/14 10/10/10 12/9/12 
f 15/15/15 16/14/16 12/9/12 11/12/11 
f 13/16/13 15/15/15 11/12/11 9/11/9 
v 0.950000 0.050000 -0.050000
v 0.950000 0.050000 0.050000
v 0.950000 -0.050000 -0.050000
v 0.950000 -0.050000 0.050000
v 1.050000 0.050000 -0.050000
v 1.050000 0.050000 0.050000
v 1.050000 -0.050000 -0.050000
v 1.050000 -0.050000 0.050000
vn -0.577350 0.577350 -0.577350
vn -0.577350 0.577350 0.577350
vn -0.577350 -0.577350 -0.577350
vn -0.577350 -0.577350 0.577350
vn 0.577350 0.577350 -0.577350
vn 0.577350 0.577350 0.577350
vn 0.577350 -0.577350 -0.577350
vn 0.577350 -0.577350 0.577350
vt 0.995049 0.995049
vt 0.995049 0.995049
vt 0.004950 0.995049
vt 0.004950 0.995049
vt 0.995049 0.004950
vt 0.995049 0.004950
vt 0.004950 0.004950
vt 0.004950 0.004950
g Cube
usemtl Default
f 20/17/20 18/18/18 17/19/17 19/20/19 
f 22/21/22 24/22/24 23/23/23 21/24/21 
f 22/21/22 21/24/21 17/19/17 18/18/18 
f 24/22/24 22/21/22 18/18/18 20/17/20 
f 23/23/23 24/22/24 20/17/20 19/20/19 
f 21/24/21 23/23/23 19/20/19 17/19/17 
v 0.050000 1.050000 -0.050000
v 0.050000 0.950000 -0.050000
v 0.050000 1.050000 0.050000
v 0.050000 0.950000 0.050000
v -0.050000 1.050000 -0.050000
v -0.050000 0.950000 -0.050000
v -0.050000 1.050000 0.050000
v -0.050000 0.950000 0.050000
vn 0.577350 0.577350 -0.577350
vn 0.577350 -0.577350 -0.577350
vn 0.577350 0.577350 0.577350
vn 0.577350 -0.577350 0.577350
vn -0.577350 0.577350 -0.577350
vn -0.577350 -0.577350 -0.577350
vn -0.577350 0.577350 0.577350
vn -0.577350 -0.577350 0.577350
vt 0.995049 0.995049
vt 0.995049 0.995049
vt 0.004950 0.995049
vt 0.004950 0.995049
vt 0.995049 0.004950
vt 0.995049 0.004950
vt 0.004950 0.004950
vt 0.004950 0.004950
g Cube
usemtl Default
f 28/25/28 26/26/26 25/27/25 27/28/27 
f 30/29/30 32/30/32 31/31/31 29/32/29 
f 30/29/30 29/32/29 25/27/25 26/26/26 
f 32/30/32 30/29/30 26/26/26 28/25/28 
f 31/31/31 32/30/32 28/25/28 27/28/27 
f 29/32/29 31/31/31 27/28/27 25/27/25 
