mtllib transformer_translate.mtl
o transformer_translate.obj
v 0.020071 -0.048455 0.914335
v 0.000000 0.000000 1.085665
v 0.000000 -0.052447 0.914335
v 0.000000 -0.052447 0.914335
v 0.000000 0.000000 1.085665
v -0.020071 -0.048455 0.914335
v 0.037086 -0.037086 0.914335
v 0.000000 0.000000 1.085665
v 0.048455 -0.020071 0.914335
v 0.052447 0.000000 0.914335
v 0.000000 0.000000 1.085665
v 0.048455 0.020071 0.914335
v 0.037086 0.037086 0.914335
v 0.000000 0.000000 1.085665
v 0.020071 0.048455 0.914335
v 0.000000 0.052447 0.914335
v 0.000000 0.000000 1.085665
v -0.020071 0.048455 0.914335
v -0.037086 0.037086 0.914335
v 0.000000 0.000000 1.085665
v -0.048455 0.020071 0.914335
v -0.052447 0.000000 0.914335
v 0.000000 0.000000 1.085665
v -0.048455 -0.020071 0.914335
v -0.037086 -0.037086 0.914335
v 0.000000 0.000000 1.085665
v 0.020071 -0.048455 0.914335
v 0.000000 -0.052447 0.914335
v 0.000000 0.000000 0.914335
v -0.020071 -0.048455 0.914335
v -0.037086 -0.037086 0.914335
v -0.048455 -0.020071 0.914335
v -0.052447 0.000000 0.914335
v -0.048455 0.020071 0.914335
v -0.037086 0.037086 0.914335
v -0.020071 0.048455 0.914335
v 0.000000 0.052447 0.914335
v 0.020071 0.048455 0.914335
v 0.037086 0.037086 0.914335
v 0.048455 0.020071 0.914335
v 0.052447 0.000000 0.914335
v 0.048455 -0.020071 0.914335
v 0.037086 -0.037086 0.914335
vn 0.365924 -0.883413 0.292713
vn 0.186851 -0.939360 0.287558
vn 0.186851 -0.939360 0.287558
vn -0.186849 -0.939360 0.287558
vn -0.186849 -0.939360 0.287558
vn -0.365923 -0.883414 0.292713
vn 0.676138 -0.676134 0.292712
vn 0.676138 -0.676134 0.292712
vn 0.883415 -0.365921 0.292712
vn 0.956201 -0.000000 0.292711
vn 0.956201 -0.000000 0.292711
vn 0.883413 0.365924 0.292712
vn 0.676135 0.676137 0.292711
vn 0.676135 0.676137 0.292711
vn 0.365924 0.883414 0.292712
vn 0.000001 0.956201 0.292712
vn 0.000001 0.956201 0.292712
vn -0.365923 0.883414 0.292712
vn -0.676134 0.676138 0.292712
vn -0.676134 0.676138 0.292712
vn -0.883412 0.365925 0.292713
vn -0.956200 -0.000000 0.292713
vn -0.956200 -0.000000 0.292713
vn -0.883414 -0.365922 0.292713
vn -0.676136 -0.676135 0.292713
vn -0.676136 -0.676135 0.292713
vn 0.000000 0.000000 -1.000000
vn 0.000000 0.000000 -1.000000
vn 0.000000 0.000000 -1.000000
vn 0.000000 0.000000 -1.000000
vn 0.000000 0.000000 -1.000000
vn 0.000000 0.000000 -1.000000
vn 0.000000 0.000000 -1.000000
vn 0.000000 0.000000 -1.000000
vn 0.000000 0.000000 -1.000000
vn 0.000000 0.000000 -1.000000
vn 0.000000 0.000000 -1.000000
vn 0.000000 0.000000 -1.000000
vn 0.000000 0.000000 -1.000000
vn 0.000000 0.000000 -1.000000
vn 0.000000 0.000000 -1.000000
vn 0.000000 0.000000 -1.000000
vn 0.000000 0.000000 -1.000000
vt 0.937500 1.000000
vt 1.000000 0.000000
vt 1.000000 1.000000
vt 0.000000 1.000000
vt 0.000000 0.000000
vt 0.062500 1.000000
vt 0.875000 1.000000
vt 0.875000 0.000000
vt 0.937500 1.000000
vt 0.812500 1.000000
vt 0.750000 1.000000
vt 0.750000 0.000000
vt 0.812500 1.000000
vt 0.687500 1.000000
vt 0.625000 1.000000
vt 0.625000 0.000000
vt 0.687500 1.000000
vt 0.562500 1.000000
vt 0.500000 1.000000
vt 0.500000 0.000000
vt 0.562500 1.000000
vt 0.437500 1.000000
vt 0.375000 1.000000
vt 0.375000 0.000000
vt 0.437500 1.000000
vt 0.312500 1.000000
vt 0.250000 1.000000
vt 0.250000 0.000000
vt 0.312500 1.000000
vt 0.187500 1.000000
vt 0.125000 1.000000
vt 0.125000 0.000000
vt 0.187500 1.000000
vt 0.062500 1.000000
vt 0.000000 0.000000
vt 0.000000 0.000000
vt 0.000000 0.000000
vt 0.000000 0.000000
vt 0.000000 0.000000
vt 0.000000 0.000000
vt 0.000000 0.000000
vt 0.000000 0.000000
vt 0.000000 0.000000
vt 0.000000 0.000000
vt 0.000000 0.000000
vt 0.000000 0.000000
vt 0.000000 0.000000
vt 0.000000 0.000000
vt 0.000000 0.000000
vt 0.000000 0.000000
vt 0.000000 0.000000
g Generic
usemtl Default
f 1/1/1 2/2/2 3/3/3 
f 4/4/4 5/5/5 6/6/6 
f 7/7/7 8/8/8 1/9/1 
f 9/10/9 8/8/8 7/7/7 
f 10/11/10 11/12/11 9/13/9 
f 12/14/12 11/12/11 10/11/10 
f 13/15/13 14/16/14 12/17/12 
f 15/18/15 14/16/14 13/15/13 
f 16/19/16 17/20/17 15/21/15 
f 18/22/18 17/20/17 16/19/16 
f 19/23/19 20/24/20 18/25/18 
f 21/26/21 20/24/20 19/23/19 
f 22/27/22 23/28/23 21/29/21 
f 24/30/24 23/28/23 22/27/22 
f 25/31/25 26/32/26 24/33/24 
f 6/34/6 26/32/26 25/31/25 
f 27/35/27 28/36/28 29/37/29 
f 28/36/28 30/38/30 29/37/29 
f 30/38/30 31/39/31 29/37/29 
f 31/39/31 32/40/32 29/37/29 
f 32/40/32 33/41/33 29/37/29 
f 33/41/33 34/42/34 29/37/29 
f 34/42/34 35/43/35 29/37/29 
f 35/43/35 36/44/36 29/37/29 
f 36/44/36 37/45/37 29/37/29 
f 37/45/37 38/46/38 29/37/29 
f 38/46/38 39/47/39 29/37/29 
f 39/47/39 40/48/40 29/37/29 
f 40/48/40 41/49/41 29/37/29 
f 41/49/41 42/50/42 29/37/29 
f 42/50/42 43/51/43 29/37/29 
f 43/51/43 27/35/27 29/37/29 
v 0.914335 -0.048455 -0.020071
v 1.085665 0.000000 -0.000000
v 0.914335 -0.052447 -0.000000
v 0.914335 -0.052447 -0.000000
v 1.085665 0.000000 -0.000000
v 0.914335 -0.048455 0.020071
v 0.914335 -0.037086 -0.037086
v 1.085665 0.000000 -0.000000
v 0.914335 -0.020071 -0.048455
v 0.914335 0.000000 -0.052447
v 1.085665 0.000000 -0.000000
v 0.914335 0.020071 -0.048455
v 0.914335 0.037086 -0.037086
v 1.085665 0.000000 -0.000000
v 0.914335 0.048455 -0.020071
v 0.914335 0.052447 -0.000000
v 1.085665 0.000000 -0.000000
v 0.914335 0.048455 0.020071
v 0.914335 0.037086 0.037086
v 1.085665 0.000000 -0.000000
v 0.914335 0.020071 0.048455
v 0.914335 0.000000 0.052447
v 1.085665 0.000000 -0.000000
v 0.914335 -0.020071 0.048455
v 0.914335 -0.037086 0.037086
v 1.085665 0.000000 -0.000000
v 0.914335 -0.048455 -0.020071
v 0.914335 -0.052447 -0.000000
v 0.914335 0.000000 -0.000000
v 0.914335 -0.048455 0.020071
v 0.914335 -0.037086 0.037086
v 0.914335 -0.020071 0.048455
v 0.914335 0.000000 0.052447
v 0.914335 0.020071 0.048455
v 0.914335 0.037086 0.037086
v 0.914335 0.048455 0.020071
v 0.914335 0.052447 -0.000000
v 0.914335 0.048455 -0.020071
v 0.914335 0.037086 -0.037086
v 0.914335 0.020071 -0.048455
v 0.914335 0.000000 -0.052447
v 0.914335 -0.020071 -0.048455
v 0.914335 -0.037086 -0.037086
vn 0.292713 -0.883413 -0.365924
vn 0.287558 -0.939360 -0.186851
vn 0.287558 -0.939360 -0.186851
vn 0.287558 -0.939360 0.186849
vn 0.287558 -0.939360 0.186849
vn 0.292713 -0.883413 0.365923
vn 0.292712 -0.676134 -0.676137
vn 0.292712 -0.676134 -0.676137
vn 0.292712 -0.365922 -0.883415
vn 0.292712 -0.000000 -0.956201
vn 0.292712 -0.000000 -0.956201
vn 0.292712 0.365925 -0.883413
vn 0.292711 0.676137 -0.676135
vn 0.292711 0.676137 -0.676135
vn 0.292712 0.883413 -0.365924
vn 0.292712 0.956201 -0.000001
vn 0.292712 0.956201 -0.000001
vn 0.292712 0.883414 0.365923
vn 0.292712 0.676138 0.676134
vn 0.292712 0.676138 0.676134
vn 0.292713 0.365926 0.883412
vn 0.292713 -0.000000 0.956200
vn 0.292713 -0.000000 0.956200
vn 0.292713 -0.365922 0.883414
vn 0.292713 -0.676135 0.676136
vn 0.292713 -0.676135 0.676136
vn -1.000000 0.000000 0.000000
vn -1.000000 0.000000 0.000000
vn -1.000000 0.000000 0.000000
vn -1.000000 0.000000 0.000000
vn -1.000000 0.000000 0.000000
vn -1.000000 0.000000 0.000000
vn -1.000000 0.000000 0.000000
vn -1.000000 0.000000 0.000000
vn -1.000000 0.000000 0.000000
vn -1.000000 0.000000 0.000000
vn -1.000000 0.000000 0.000000
vn -1.000000 0.000000 0.000000
vn -1.000000 0.000000 0.000000
vn -1.000000 0.000000 0.000000
vn -1.000000 0.000000 0.000000
vn -1.000000 0.000000 0.000000
vn -1.000000 0.000000 0.000000
vt 0.937500 1.000000
vt 1.000000 0.000000
vt 1.000000 1.000000
vt 0.000000 1.000000
vt 0.000000 0.000000
vt 0.062500 1.000000
vt 0.875000 1.000000
vt 0.875000 0.000000
vt 0.937500 1.000000
vt 0.812500 1.000000
vt 0.750000 1.000000
vt 0.750000 0.000000
vt 0.812500 1.000000
vt 0.687500 1.000000
vt 0.625000 1.000000
vt 0.625000 0.000000
vt 0.687500 1.000000
vt 0.562500 1.000000
vt 0.500000 1.000000
vt 0.500000 0.000000
vt 0.562500 1.000000
vt 0.437500 1.000000
vt 0.375000 1.000000
vt 0.375000 0.000000
vt 0.437500 1.000000
vt 0.312500 1.000000
vt 0.250000 1.000000
vt 0.250000 0.000000
vt 0.312500 1.000000
vt 0.187500 1.000000
vt 0.125000 1.000000
vt 0.125000 0.000000
vt 0.187500 1.000000
vt 0.062500 1.000000
vt 0.000000 0.000000
vt 0.000000 0.000000
vt 0.000000 0.000000
vt 0.000000 0.000000
vt 0.000000 0.000000
vt 0.000000 0.000000
vt 0.000000 0.000000
vt 0.000000 0.000000
vt 0.000000 0.000000
vt 0.000000 0.000000
vt 0.000000 0.000000
vt 0.000000 0.000000
vt 0.000000 0.000000
vt 0.000000 0.000000
vt 0.000000 0.000000
vt 0.000000 0.000000
vt 0.000000 0.000000
g Generic
usemtl Default
f 44/52/44 45/53/45 46/54/46 
f 47/55/47 48/56/48 49/57/49 
f 50/58/50 51/59/51 44/60/44 
f 52/61/52 51/59/51 50/58/50 
f 53/62/53 54/63/54 52/64/52 
f 55/65/55 54/63/54 53/62/53 
f 56/66/56 57/67/57 55/68/55 
f 58/69/58 57/67/57 56/66/56 
f 59/70/59 60/71/60 58/72/58 
f 61/73/61 60/71/60 59/70/59 
f 62/74/62 63/75/63 61/76/61 
f 64/77/64 63/75/63 62/74/62 
f 65/78/65 66/79/66 64/80/64 
f 67/81/67 66/79/66 65/78/65 
f 68/82/68 69/83/69 67/84/67 
f 49/85/49 69/83/69 68/82/68 
f 70/86/70 71/87/71 72/88/72 
f 71/87/71 73/89/73 72/88/72 
f 73/89/73 74/90/74 72/88/72 
f 74/90/74 75/91/75 72/88/72 
f 75/91/75 76/92/76 72/88/72 
f 76/92/76 77/93/77 72/88/72 
f 77/93/77 78/94/78 72/88/72 
f 78/94/78 79/95/79 72/88/72 
f 79/95/79 80/96/80 72/88/72 
f 80/96/80 81/97/81 72/88/72 
f 81/97/81 82/98/82 72/88/72 
f 82/98/82 83/99/83 72/88/72 
f 83/99/83 84/100/84 72/88/72 
f 84/100/84 85/101/85 72/88/72 
f 85/101/85 86/102/86 72/88/72 
f 86/102/86 70/86/70 72/88/72 
v 0.020071 0.914335 0.048455
v 0.000000 1.085665 -0.000000
v 0.000000 0.914335 0.052447
v 0.000000 0.914335 0.052447
v 0.000000 1.085665 -0.000000
v -0.020071 0.914335 0.048455
v 0.037086 0.914335 0.037086
v 0.000000 1.085665 -0.000000
v 0.048455 0.914335 0.020071
v 0.052447 0.914335 -0.000000
v 0.000000 1.085665 -0.000000
v 0.048455 0.914335 -0.020071
v 0.037086 0.914335 -0.037086
v 0.000000 1.085665 -0.000000
v 0.020071 0.914335 -0.048455
v 0.000000 0.914335 -0.052447
v 0.000000 1.085665 -0.000000
v -0.020071 0.914335 -0.048455
v -0.037086 0.914335 -0.037086
v 0.000000 1.085665 -0.000000
v -0.048455 0.914335 -0.020071
v -0.052447 0.914335 -0.000000
v 0.000000 1.085665 -0.000000
v -0.048455 0.914335 0.020071
v -0.037086 0.914335 0.037086
v 0.000000 1.085665 -0.000000
v 0.020071 0.914335 0.048455
v 0.000000 0.914335 0.052447
v 0.000000 0.914335 -0.000000
v -0.020071 0.914335 0.048455
v -0.037086 0.914335 0.037086
v -0.048455 0.914335 0.020071
v -0.052447 0.914335 -0.000000
v -0.048455 0.914335 -0.020071
v -0.037086 0.914335 -0.037086
v -0.020071 0.914335 -0.048455
v 0.000000 0.914335 -0.052447
v 0.020071 0.914335 -0.048455
v 0.037086 0.914335 -0.037086
v 0.048455 0.914335 -0.020071
v 0.052447 0.914335 -0.000000
v 0.048455 0.914335 0.020071
v 0.037086 0.914335 0.037086
vn 0.365924 0.292713 0.883413
vn 0.186851 0.287558 0.939360
vn 0.186851 0.287558 0.939360
vn -0.186849 0.287558 0.939360
vn -0.186849 0.287558 0.939360
vn -0.365923 0.292713 0.883413
vn 0.676138 0.292712 0.676134
vn 0.676138 0.292712 0.676134
vn 0.883415 0.292712 0.365921
vn 0.956201 0.292712 0.000000
vn 0.956201 0.292712 0.000000
vn 0.883413 0.292712 -0.365925
vn 0.676135 0.292711 -0.676137
vn 0.676135 0.292711 -0.676137
vn 0.365924 0.292712 -0.883413
vn 0.000001 0.292712 -0.956201
vn 0.000001 0.292712 -0.956201
vn -0.365923 0.292712 -0.883414
vn -0.676134 0.292712 -0.676138
vn -0.676134 0.292712 -0.676138
vn -0.883412 0.292713 -0.365926
vn -0.956200 0.292713 0.000000
vn -0.956200 0.292713 0.000000
vn -0.883414 0.292713 0.365922
vn -0.676136 0.292713 0.676135
vn -0.676136 0.292713 0.676135
vn 0.000000 -1.000000 0.000000
vn 0.000000 -1.000000 0.000000
vn 0.000000 -1.000000 0.000000
vn 0.000000 -1.000000 0.000000
vn 0.000000 -1.000000 0.000000
vn 0.000000 -1.000000 0.000000
vn 0.000000 -1.000000 0.000000
vn 0.000000 -1.000000 0.000000
vn 0.000000 -1.000000 0.000000
vn 0.000000 -1.000000 0.000000
vn 0.000000 -1.000000 0.000000
vn 0.000000 -1.000000 0.000000
vn 0.000000 -1.000000 0.000000
vn 0.000000 -1.000000 0.000000
vn 0.000000 -1.000000 0.000000
vn 0.000000 -1.000000 0.000000
vn 0.000000 -1.000000 0.000000
vt 0.937500 1.000000
vt 1.000000 0.000000
vt 1.000000 1.000000
vt 0.000000 1.000000
vt 0.000000 0.000000
vt 0.062500 1.000000
vt 0.875000 1.000000
vt 0.875000 0.000000
vt 0.937500 1.000000
vt 0.812500 1.000000
vt 0.750000 1.000000
vt 0.750000 0.000000
vt 0.812500 1.000000
vt 0.687500 1.000000
vt 0.625000 1.000000
vt 0.625000 0.000000
vt 0.687500 1.000000
vt 0.562500 1.000000
vt 0.500000 1.000000
vt 0.500000 0.000000
vt 0.562500 1.000000
vt 0.437500 1.000000
vt 0.375000 1.000000
vt 0.375000 0.000000
vt 0.437500 1.000000
vt 0.312500 1.000000
vt 0.250000 1.000000
vt 0.250000 0.000000
vt 0.312500 1.000000
vt 0.187500 1.000000
vt 0.125000 1.000000
vt 0.125000 0.000000
vt 0.187500 1.000000
vt 0.062500 1.000000
vt 0.000000 0.000000
vt 0.000000 0.000000
vt 0.000000 0.000000
vt 0.000000 0.000000
vt 0.000000 0.000000
vt 0.000000 0.000000
vt 0.000000 0.000000
vt 0.000000 0.000000
vt 0.000000 0.000000
vt 0.000000 0.000000
vt 0.000000 0.000000
vt 0.000000 0.000000
vt 0.000000 0.000000
vt 0.000000 0.000000
vt 0.000000 0.000000
vt 0.000000 0.000000
vt 0.000000 0.000000
g Generic
usemtl Default
f 87/103/87 88/104/88 89/105/89 
f 90/106/90 91/107/91 92/108/92 
f 93/109/93 94/110/94 87/111/87 
f 95/112/95 94/110/94 93/109/93 
f 96/113/96 97/114/97 95/115/95 
f 98/116/98 97/114/97 96/113/96 
f 99/117/99 100/118/100 98/119/98 
f 101/120/101 100/118/100 99/117/99 
f 102/121/102 103/122/103 101/123/101 
f 104/124/104 103/122/103 102/121/102 
f 105/125/105 106/126/106 104/127/104 
f 107/128/107 106/126/106 105/125/105 
f 108/129/108 109/130/109 107/131/107 
f 110/132/110 109/130/109 108/129/108 
f 111/133/111 112/134/112 110/135/110 
f 92/136/92 112/134/112 111/133/111 
f 113/137/113 114/138/114 115/139/115 
f 114/138/114 116/140/116 115/139/115 
f 116/140/116 117/141/117 115/139/115 
f 117/141/117 118/142/118 115/139/115 
f 118/142/118 119/143/119 115/139/115 
f 119/143/119 120/144/120 115/139/115 
f 120/144/120 121/145/121 115/139/115 
f 121/145/121 122/146/122 115/139/115 
f 122/146/122 123/147/123 115/139/115 
f 123/147/123 124/148/124 115/139/115 
f 124/148/124 125/149/125 115/139/115 
f 125/149/125 126/150/126 115/139/115 
f 126/150/126 127/151/127 115/139/115 
f 127/151/127 128/152/128 115/139/115 
f 128/152/128 129/153/129 115/139/115 
f 129/153/129 113/137/113 115/139/115 
v -0.043515 -0.043515 -0.043515
v 0.043515 -0.043515 -0.043515
v -0.043515 0.043515 -0.043515
v 0.043515 0.043515 -0.043515
v -0.043515 -0.043515 0.043515
v 0.043515 -0.043515 0.043515
v -0.043515 0.043515 0.043515
v 0.043515 0.043515 0.043515
vn -0.577350 -0.577350 -0.577350
vn 0.577350 -0.577350 -0.577350
vn -0.577350 0.577350 -0.577350
vn 0.577350 0.577350 -0.577350
vn -0.577350 -0.577350 0.577350
vn 0.577350 -0.577350 0.577350
vn -0.577350 0.577350 0.577350
vn 0.577350 0.577350 0.577350
vt 0.995049 0.995049
vt 0.995049 0.995049
vt 0.004950 0.995049
vt 0.004950 0.995049
vt 0.995049 0.004950
vt 0.995049 0.004950
vt 0.004950 0.004950
vt 0.004950 0.004950
g Cube
usemtl Default
f 133/154/133 131/155/131 130/156/130 132/157/132 
f 135/158/135 137/159/137 136/160/136 134/161/134 
f 135/158/135 134/161/134 130/156/130 131/155/131 
f 137/159/137 135/158/135 131/155/131 133/154/133 
f 136/160/136 137/159/137 133/154/133 132/157/132 
f 134/161/134 136/160/136 132/157/132 130/156/130 
v -0.043515 -0.008127 0.656485
v 0.043515 -0.008127 0.656485
v -0.043515 0.008127 0.656485
v 0.043515 0.008127 0.656485
v -0.043515 -0.008127 0.743515
v 0.043515 -0.008127 0.743515
v -0.043515 0.008127 0.743515
v 0.043515 0.008127 0.743515
vn -0.577350 -0.577350 -0.577350
vn 0.577350 -0.577350 -0.577350
vn -0.577350 0.577350 -0.577350
vn 0.577350 0.577350 -0.577350
vn -0.577350 -0.577350 0.577350
vn 0.577350 -0.577350 0.577350
vn -0.577350 0.577350 0.577350
vn 0.577350 0.577350 0.577350
vt 0.995049 0.995049
vt 0.995049 0.995049
vt 0.004950 0.995049
vt 0.004950 0.995049
vt 0.995049 0.004950
vt 0.995049 0.004950
vt 0.004950 0.004950
vt 0.004950 0.004950
g Cube
usemtl Default
f 141/162/141 139/163/139 138/164/138 140/165/140 
f 143/166/143 145/167/145 144/168/144 142/169/142 
f 143/166/143 142/169/142 138/164/138 139/163/139 
f 145/167/145 143/166/143 139/163/139 141/162/141 
f 144/168/144 145/167/145 141/162/141 140/165/140 
f 142/169/142 144/168/144 140/165/140 138/164/138 
v 0.656485 -0.043515 0.008127
v 0.743515 -0.043515 0.008127
v 0.656485 -0.043515 -0.008127
v 0.743515 -0.043515 -0.008127
v 0.656485 0.043515 0.008127
v 0.743515 0.043515 0.008127
v 0.656485 0.043515 -0.008127
v 0.743515 0.043515 -0.008127
vn -0.577350 -0.577350 0.577350
vn 0.577350 -0.577350 0.577350
vn -0.577350 -0.577350 -0.577350
vn 0.577350 -0.577350 -0.577350
vn -0.577350 0.577350 0.577350
vn 0.577350 0.577350 0.577350
vn -0.577350 0.577350 -0.577350
vn 0.577350 0.577350 -0.577350
vt 0.995049 0.995049
vt 0.995049 0.995049
vt 0.004950 0.995049
vt 0.004950 0.995049
vt 0.995049 0.004950
vt 0.995049 0.004950
vt 0.004950 0.004950
vt 0.004950 0.004950
g Cube
usemtl Default
f 149/170/149 147/171/147 146/172/146 148/173/148 
f 151/174/151 153/175/153 152/176/152 150/177/150 
f 151/174/151 150/177/150 146/172/146 147/171/147 
f 153/175/153 151/174/151 147/171/147 149/170/149 
f 152/176/152 153/175/153 149/170/149 148/173/148 
f 150/177/150 152/176/152 148/173/148 146/172/146 
v -0.008128 0.743515 -0.043515
v -0.008128 0.656485 -0.043515
v 0.008128 0.743515 -0.043515
v 0.008128 0.656485 -0.043515
v -0.008128 0.743515 0.043515
v -0.008128 0.656485 0.043515
v 0.008128 0.743515 0.043515
v 0.008128 0.656485 0.043515
vn -0.577350 0.577350 -0.577350
vn -0.577350 -0.577350 -0.577350
vn 0.577350 0.577350 -0.577350
vn 0.577350 -0.577350 -0.577350
vn -0.577350 0.577350 0.577350
vn -0.577350 -0.577350 0.577350
vn 0.577350 0.577350 0.577350
vn 0.577350 -0.577350 0.577350
vt 0.995049 0.995049
vt 0.995049 0.995049
vt 0.004950 0.995049
vt 0.004950 0.995049
vt 0.995049 0.004950
vt 0.995049 0.004950
vt 0.004950 0.004950
vt 0.004950 0.004950
g Cube
usemtl Default
f 157/178/157 155/179/155 154/180/154 156/181/156 
f 159/182/159 161/183/161 160/184/160 158/185/158 
f 159/182/159 158/185/158 154/180/154 155/179/155 
f 161/183/161 159/182/159 155/179/155 157/178/157 
f 160/184/160 161/183/161 157/178/157 156/181/156 
f 158/185/158 160/184/160 156/181/156 154/180/154 
